<?xml version="1.0" standalone="no"?><!DOCTYPE svg PUBLIC "-//W3C//DTD SVG 1.1//EN" "http://www.w3.org/Graphics/SVG/1.1/DTD/svg11.dtd"><svg t="1563940016619" class="icon" viewBox="0 0 1024 1024" version="1.1" xmlns="http://www.w3.org/2000/svg" p-id="3460" xmlns:xlink="http://www.w3.org/1999/xlink" width="128" height="128"><defs><style type="text/css"></style></defs><path d="M767.253333 275.84a344.170667 344.170667 0 0 1 93.077334 227.434667c4.736 190.506667-153.258667 354.666667-343.765334 357.12C321.834667 862.869333 163.541333 706.176 163.541333 512c0-91.541333 35.456-174.677333 93.098667-236.693333 18.346667-19.712 18.304-50.133333-0.704-69.141334-19.669333-19.669333-51.861333-19.413333-70.890667 0.789334-84.693333 90.197333-132.394667 214.826667-118.762666 351.146666 20.693333 206.357333 187.072 375.402667 393.088 398.912C730.304 987.861333 960 776.746667 960 512c0-117.738667-45.653333-224.362667-120.213333-304.149333a50.197333 50.197333 0 0 0-72.042667-1.386667c-19.157333 19.157333-18.965333 49.621333-0.490667 69.376M462.208 113.770667V512a49.792 49.792 0 0 0 99.562667 0V113.770667a49.792 49.792 0 0 0-99.562667 0" fill="#ffffff" p-id="3461"></path></svg>