<?xml version="1.0" standalone="no"?><!DOCTYPE svg PUBLIC "-//W3C//DTD SVG 1.1//EN" "http://www.w3.org/Graphics/SVG/1.1/DTD/svg11.dtd"><svg t="1563956529204" class="icon" viewBox="0 0 1024 1024" version="1.1" xmlns="http://www.w3.org/2000/svg" p-id="4482" xmlns:xlink="http://www.w3.org/1999/xlink" width="128" height="128"><defs><style type="text/css"></style></defs><path d="M867.525632 513.88416c12.470272 21.147648 12.594176 47.625216 0.264192 68.913152-12.331008 21.287936-35.162112 34.526208-59.833344 34.253824h-80.324608l-87.22432-151.054336 149.651456-86.306816c25.800704 44.746752 51.627008 89.475072 77.466624 134.194176zM357.236736 181.907456c11.031552-17.78176 29.848576-30.497792 52.299776-30.497792h215.56224c-31.664128 0-59.433984 16.480256-75.148288 43.603968C529.323008 230.44608 416.67584 425.890816 416.67584 425.890816l-150.155264-86.690816s71.766016-126.276608 90.71616-157.292544zM261.720064 783.82592l-107.718656-186.628096c-11.290624-19.456-10.380288-42.436608 0.259072-60.597248l43.47904-75.280384-55.938048-32.18432h174.298112l87.209984 150.936576-55.934976-32.447488-85.395456 147.828736c-15.963136 27.11552-16.095232 60.988416-0.259072 88.372224z" p-id="4483" fill="#ffffff"></path><path d="M491.167744 809.906176h-154.955776c-24.65792 0.265216-47.628288-12.841984-59.8272-34.251776-12.331008-21.289984-12.198912-47.6416 0.259072-68.914176 0 0 19.989504-34.528256 40.101888-69.57056H491.167744v172.736512zM509.078528 375.53664l56.454144-31.664128-40.612864-70.33856c20.10624-35.04128 40.216576-69.435392 40.216576-69.563392 12.082176-21.415936 34.789376-34.782208 59.452416-34.909184 24.520704 0 47.244288 13.366272 59.567104 34.649088 8.823808 15.0528 30.630912 53.21216 30.630912 53.21216l55.798784-32.447488-87.213056 151.061504H509.078528zM774.479872 778.118144c-11.28448 19.334144-31.666176 30.1056-52.688896 29.974528h-86.950912l0.124928 64.49664-87.20896-150.936576 87.20896-151.054336-0.124928 64.761856h170.65984c31.408128 0.256 60.86144-16.61952 76.6976-43.871232L774.479872 778.118144z" p-id="4484" fill="#ffffff"></path></svg>