<?xml version="1.0" standalone="no"?><!DOCTYPE svg PUBLIC "-//W3C//DTD SVG 1.1//EN" "http://www.w3.org/Graphics/SVG/1.1/DTD/svg11.dtd"><svg t="1564038646412" class="icon" viewBox="0 0 1024 1024" version="1.1" xmlns="http://www.w3.org/2000/svg" p-id="15377" xmlns:xlink="http://www.w3.org/1999/xlink" width="128" height="128"><defs><style type="text/css"></style></defs><path d="M780.82048 372.98176H274.20672l-1.00352-116.67456c0-98.2016 139.28448-197.38624 238.77632-197.38624 119.3984 0 238.77632 99.18464 238.77632 197.38624v57.71264c0 16.2816 13.43488 29.47072 30.06464 29.47072 16.62976 0 30.08512-13.18912 30.08512-29.47072v-57.71264c0-130.70336-121.52832-256.32768-298.92608-256.32768-132.62848 0-298.9056 125.62432-298.9056 256.57344l1.024 120.29952C161.83296 389.65248 122.88 435.712 122.88 490.86464v415.232c0 65.00352 53.92384 117.88288 120.25856 117.88288h537.68192c66.33472 0 120.27904-52.87936 120.27904-117.88288V490.86464c0-65.024-53.94432-117.88288-120.27904-117.88288z m60.14976 533.11488c0 32.50176-26.97216 58.94144-60.14976 58.94144H243.13856c-33.1776 0-60.12928-26.43968-60.12928-58.94144V490.86464c0-32.52224 26.95168-58.94144 60.12928-58.94144h537.68192c33.1776 0 60.14976 26.4192 60.14976 58.94144v415.232M511.97952 616.93952c-16.5888 0-30.06464 13.16864-30.06464 29.47072v117.88288c0 16.30208 13.47584 29.47072 30.06464 29.47072 16.60928 0 30.06464-13.16864 30.06464-29.47072v-117.88288c0-16.30208-13.45536-29.47072-30.06464-29.47072z" p-id="15378" fill="#1ccab5"></path></svg>