<?xml version="1.0" standalone="no"?><!DOCTYPE svg PUBLIC "-//W3C//DTD SVG 1.1//EN" "http://www.w3.org/Graphics/SVG/1.1/DTD/svg11.dtd"><svg t="1564042775708" class="icon" viewBox="0 0 1025 1024" version="1.1" xmlns="http://www.w3.org/2000/svg" p-id="20344" xmlns:xlink="http://www.w3.org/1999/xlink" width="128.125" height="128"><defs><style type="text/css"></style></defs><path d="M510.265371 605.072813l393.021494-345.504027a42.654818 42.654818 0 1 1 56.30436 64.039101L537.791947 694.477312a42.654818 42.654818 0 0 1-46.806554 6.341349 42.569508 42.569508 0 0 1-12.170841-8.075978l-206.762122-195.614996a42.654818 42.654818 0 1 1 58.60772-61.991669l179.633657 169.936795z m288.062205-519.535684a42.654818 42.654818 0 0 1-47.147793 71.1198 426.917856 426.917856 0 0 0-236.705804-71.091364c-236.449875 0-428.083755 191.008275-428.083754 426.548181 0 235.539906 191.633879 426.548181 428.083754 426.548181 218.13674 0 400.727798-163.424826 425.296974-377.49514a42.654818 42.654818 0 0 1 84.740905 9.725299c-29.488698 257.06637-248.478534 453.079478-510.037879 453.079477-283.512358 0-513.393391-229.113246-513.39339-511.857817 0-282.716134 229.881033-511.857817 513.39339-511.857817 102.371563 0 200.363899 29.972119 283.853597 85.309636z" fill="#1ccab5" p-id="20345"></path></svg>