<?xml version="1.0" standalone="no"?><!DOCTYPE svg PUBLIC "-//W3C//DTD SVG 1.1//EN" "http://www.w3.org/Graphics/SVG/1.1/DTD/svg11.dtd"><svg t="1564027060550" class="icon" viewBox="0 0 1024 1024" version="1.1" xmlns="http://www.w3.org/2000/svg" p-id="13356" xmlns:xlink="http://www.w3.org/1999/xlink" width="128" height="128"><defs><style type="text/css"></style></defs><path d="M472.09613499 58.04777419c-53.44921369 11.34880564-102.50534131 38.80559349-135.81957724 76.14682496-21.23324927 23.79588279-48.69003711 76.51291549-54.54748517 106.16624638-5.85744807 27.82287834-5.12526708 83.46863508 1.46436201 108.72887989 10.61662464 42.10040802 29.65333089 74.31637248 63.6997478 108.36278937 49.05612762 49.05612762 97.38007425 69.1911054 165.10681761 69.19110538s116.05068999-20.13497775 165.10681761-69.19110538c49.05612762-49.05612762 69.1911054-97.38007425 69.1911054-165.10681761 0-42.10040802-6.22353857-69.1911054-25.26024483-107.99669888-37.34123148-75.41464396-113.85414695-124.47077158-199.88541557-128.13167666-17.93843471-0.73218101-40.26995552 0-49.05612762 1.83045255z m65.53020034 58.57448074c69.1911054 10.98271516 127.03340513 63.33365731 144.60574935 129.96212917 22.69761129 88.22781163-25.26024481 179.3843473-110.92542292 211.60031171-29.65333089 10.98271516-88.95999265 10.98271516-118.61332352 0-69.9232864-25.99242582-116.41678049-92.25480718-116.41678049-165.83899863 0-95.18353122 73.58419146-171.6964467 172.06253719-179.01825679 2.92872403 0 16.1079822 1.46436202 29.28724039 3.29481454zM332.6156527 565.08312319c-94.08525971 19.40279674-170.96426567 80.17382054-214.16294522 168.40163214-22.69761129 46.49349409-32.21596439 84.20081609-32.58205494 129.96212917-0.36609051 47.59176558 16.84016321 78.343368 54.18139469 98.11225524l18.67061572 9.88444363h706.5546741l18.67061572-9.88444363c37.34123148-19.76888725 54.54748521-50.52048965 54.18139469-98.11225524-0.73218101-114.58632796-69.1911054-221.85084586-174.62517072-272.737426-61.13711429-29.28724036-56.74402823-28.55505936-242.35191413-29.65333088-127.39949563-0.73218101-170.23208468 0-188.53660991 4.02699557z m347.05379844 58.94057124c71.75373892 14.2775297 136.18566773 63.69974783 170.59817519 129.59603867 16.1079822 31.1176929 23.06370179 54.18139467 27.45678786 89.32608312 4.02699555 34.41250743 0 50.88658013-15.3758012 62.23538582-10.25053413 7.6879006-10.98271516 7.6879006-350.34861299 7.68790058s-340.09807888 0-350.34861299-7.68790058c-15.0097107-11.34880564-19.03670624-27.09069735-15.3758012-61.86929529 12.08098666-109.8271514 90.05826416-195.85842 199.15323455-219.65430284 34.41250743-7.6879006 296.53330879-7.3218101 334.24063078 0.36609052z" p-id="13357" fill="#1ccab5"></path></svg>